<?xml version="1.0" encoding="UTF-8" standalone="no"?>
<!-- Generated by graphviz version 2.40.1 (20161225.0304)
 -->

<!-- Title: %0 Pages: 1 -->

<svg
   width="173pt"
   height="88pt"
   viewBox="0 0 173.4 88"
   version="1.1"
   id="svg173"
   sodipodi:docname="Model_human.svg"
   inkscape:version="1.1.2 (0a00cf5339, 2022-02-04)"
   xmlns:inkscape="http://www.inkscape.org/namespaces/inkscape"
   xmlns:sodipodi="http://sodipodi.sourceforge.net/DTD/sodipodi-0.dtd"
   xmlns="http://www.w3.org/2000/svg"
   xmlns:svg="http://www.w3.org/2000/svg">
  <defs
     id="defs177" />
  <sodipodi:namedview
     id="namedview175"
     pagecolor="#ffffff"
     bordercolor="#666666"
     borderopacity="1.0"
     inkscape:pageshadow="2"
     inkscape:pageopacity="0.0"
     inkscape:pagecheckerboard="0"
     inkscape:document-units="pt"
     showgrid="false"
     inkscape:zoom="3.1183718"
     inkscape:cx="105.50378"
     inkscape:cy="84.819905"
     inkscape:window-width="1846"
     inkscape:window-height="1016"
     inkscape:window-x="74"
     inkscape:window-y="27"
     inkscape:window-maximized="1"
     inkscape:current-layer="svg173"
     height="145pt" />
  <g
     id="graph0-3"
     class="graph"
     transform="matrix(0.59069377,0,0,0.59069377,74.586238,123.20107)">
    <title
       id="title179">%0</title>
    <polygon
       fill="#ffffff"
       stroke="transparent"
       points="-4,-61 135,-61 135,4 -4,4 "
       id="polygon181"
       transform="matrix(0.72478105,0,0,0.72478105,62.391688,-114.5913)" />
    <!-- y2 -->
    <g
       id="node1-6"
       class="node"
       transform="matrix(0.72478105,0,0,0.72478105,62.391688,-114.5913)">
      <title
         id="title183">y2</title>
      <text
         text-anchor="start"
         x="65.953003"
         y="-53.5"
         font-family="Times, serif"
         font-size="10px"
         fill="#000000"
         id="text185">Infection</text>
      <text
         text-anchor="start"
         x="58.473301"
         y="-47.099998"
         font-family="Times, serif"
         font-size="6px"
         fill="#000000"
         id="text187">&quot;human_infection.R&quot;</text>
    </g>
    <!-- y4 -->
    <g
       id="node2-7"
       class="node"
       transform="matrix(0.72478105,0,0,0.72478105,62.391688,-114.5913)">
      <title
         id="title190">y4</title>
      <text
         text-anchor="start"
         x="54.564499"
         y="-28.5"
         font-family="Times, serif"
         font-size="10px"
         fill="#000000"
         id="text192">Superinfection</text>
      <text
         text-anchor="start"
         x="58.473301"
         y="-22.1"
         font-family="Times, serif"
         font-size="6px"
         fill="#000000"
         id="text194">&quot;human_infection.R&quot;</text>
    </g>
    <!-- g2 -->
    <g
       id="node3-5"
       class="node"
       transform="matrix(0.72478105,0,0,0.72478105,62.391688,-114.5913)">
      <title
         id="title197">g2</title>
      <text
         text-anchor="start"
         x="43.876499"
         y="-3.5"
         font-family="Times, serif"
         font-size="10px"
         fill="#000000"
         id="text199">Disease progression</text>
      <text
         text-anchor="start"
         x="54.643501"
         y="2.9000001"
         font-family="Times, serif"
         font-size="6px"
         fill="#000000"
         id="text201">&quot;disease_progression.R&quot;</text>
    </g>
    <!-- y1 -->
    <g
       id="node4-3"
       class="node">
      <title
         id="title204">y1</title>
    </g>
    <!-- y1&#45;&gt;y2 -->
    <g
       id="edge1-5"
       class="edge"
       transform="matrix(0.72478105,0,0,0.72478105,62.391688,-114.5913)">
      <title
         id="title207">y1-&gt;y2</title>
      <path
         fill="none"
         stroke="#ffa500"
         d="m 1.0332,-53.5 c 3.6721,0 25.6729,0 46.0952,0"
         id="path209" />
      <polygon
         fill="#ffa500"
         stroke="#ffa500"
         points="47.1858,-52.1001 47.1859,-54.9001 51.1858,-53.5 "
         id="polygon211" />
    </g>
    <!-- y3 -->
    <g
       id="node5-6"
       class="node">
      <title
         id="title214">y3</title>
    </g>
    <!-- y1&#45;&gt;y3 -->
    <g
       id="edge4-2"
       class="edge">
      <title
         id="title217">y1-&gt;y3</title>
    </g>
    <!-- y3&#45;&gt;y4 -->
    <g
       id="edge2-9"
       class="edge"
       transform="matrix(0.72478105,0,0,0.72478105,62.391688,-114.5913)">
      <title
         id="title220">y3-&gt;y4</title>
      <path
         fill="none"
         stroke="#ffa500"
         stroke-dasharray="5, 2"
         d="m 1.0332,-28.5 c 3.4607,0 23.2007,0 42.5564,0"
         id="path222" />
      <polygon
         fill="#ffa500"
         stroke="#ffa500"
         points="43.9674,-27.1001 43.9675,-29.9001 47.9675,-28.5 "
         id="polygon224" />
    </g>
    <!-- g1 -->
    <g
       id="node6-1"
       class="node">
      <title
         id="title227">g1</title>
    </g>
    <!-- y3&#45;&gt;g1 -->
    <g
       id="edge5-2"
       class="edge">
      <title
         id="title230">y3-&gt;g1</title>
    </g>
    <!-- g1&#45;&gt;g2 -->
    <g
       id="edge3-7"
       class="edge"
       transform="matrix(0.72478105,0,0,0.72478105,62.391688,-114.5913)">
      <title
         id="title233">g1-&gt;g2</title>
      <path
         fill="none"
         stroke="#00cd00"
         d="m 1.0332,-3.5 c 2.7931,0 16.1907,0 31.4319,0"
         id="path235" />
      <polygon
         fill="#00cd00"
         stroke="#00cd00"
         points="32.8055,-2.1001 32.8056,-4.9001 36.8055,-3.5 "
         id="polygon237" />
    </g>
  </g>
  <g
     id="graph0-36"
     class="graph"
     transform="matrix(0.60049093,0,0,0.60049093,2.6767739,85.347506)">
    <title
       id="title951">%0</title>
    <polygon
       fill="#ffffff"
       stroke="transparent"
       points="170.3986,4 -4,4 -4,-142 170.3986,-142 "
       id="polygon953" />
    <!-- S -->
    <g
       id="node1-7"
       class="node">
      <title
         id="title955">S</title>
      <path
         fill="none"
         stroke="#000000"
         d="m 14.6667,-73 c 0,0 -7.3334,0 -7.3334,0 C 3.6667,-73 0,-69.3333 0,-65.6667 c 0,0 0,7.3334 0,7.3334 0,3.6666 3.6667,7.3333 7.3333,7.3333 0,0 7.3334,0 7.3334,0 3.6666,0 7.3333,-3.6667 7.3333,-7.3333 0,0 0,-7.3334 0,-7.3334 C 22,-69.3333 18.3333,-73 14.6667,-73"
         id="path957" />
      <text
         text-anchor="middle"
         x="11"
         y="-57.799999"
         font-family="Times, serif"
         font-size="14px"
         fill="#000000"
         id="text959">S</text>
    </g>
    <!-- i -->
    <g
       id="node6-5"
       class="node">
      <title
         id="title962">i</title>
      <circle
         fill="none"
         stroke="#000000"
         cx="75.941902"
         cy="-62"
         id="ellipse964"
         r="5.5" />
    </g>
    <!-- S&#45;&gt;i -->
    <g
       id="edge1-3"
       class="edge">
      <title
         id="title967">S-&gt;i</title>
      <path
         fill="none"
         stroke="#ffa500"
         d="m 22.0165,-62 c 12.2677,0 31.9306,0 43.8178,0"
         id="path969" />
      <polygon
         fill="#ffa500"
         stroke="#ffa500"
         points="70.1216,-62 66.1216,-60.6001 66.1216,-63.4001 "
         id="polygon971" />
      <text
         text-anchor="start"
         x="40"
         y="-65.099998"
         font-family="Times, serif"
         font-size="7px"
         fill="#000000"
         id="text973">Λ</text>
      <text
         text-anchor="start"
         x="45.830299"
         y="-65.099998"
         font-family="Times, serif"
         font-style="italic"
         baseline-shift="sub"
         font-size="4px"
         fill="#000000"
         id="text975">i</text>
    </g>
    <!-- D -->
    <g
       id="node2-5"
       class="node">
      <title
         id="title978">D</title>
      <path
         fill="none"
         stroke="#000000"
         d="m 159.0653,-138 c 0,0 -7.3334,0 -7.3334,0 -3.6666,0 -7.3333,3.6667 -7.3333,7.3333 0,0 0,7.3334 0,7.3334 0,3.6666 3.6667,7.3333 7.3333,7.3333 0,0 7.3334,0 7.3334,0 3.6666,0 7.3333,-3.6667 7.3333,-7.3333 0,0 0,-7.3334 0,-7.3334 0,-3.6666 -3.6667,-7.3333 -7.3333,-7.3333"
         id="path980" />
      <text
         text-anchor="middle"
         x="155.39861"
         y="-122.8"
         font-family="Times, serif"
         font-size="14px"
         fill="#000000"
         id="text982">D</text>
    </g>
    <!-- A -->
    <g
       id="node3-6"
       class="node">
      <title
         id="title985">A</title>
      <path
         fill="none"
         stroke="#000000"
         d="m 159.0653,-80 c 0,0 -7.3334,0 -7.3334,0 -3.6666,0 -7.3333,3.6667 -7.3333,7.3333 0,0 0,7.3334 0,7.3334 0,3.6666 3.6667,7.3333 7.3333,7.3333 0,0 7.3334,0 7.3334,0 3.6666,0 7.3333,-3.6667 7.3333,-7.3333 0,0 0,-7.3334 0,-7.3334 0,-3.6666 -3.6667,-7.3333 -7.3333,-7.3333"
         id="path987" />
      <text
         text-anchor="middle"
         x="155.39861"
         y="-64.800003"
         font-family="Times, serif"
         font-size="14px"
         fill="#000000"
         id="text989">A</text>
    </g>
    <!-- D&#45;&gt;A -->
    <g
       id="edge6-2"
       class="edge">
      <title
         id="title992">D-&gt;A</title>
      <path
         fill="none"
         stroke="#00cd00"
         d="m 155.3986,-115.8513 c 0,8.9771 0,21.6895 0,31.6077"
         id="path994" />
      <polygon
         fill="#00cd00"
         stroke="#00cd00"
         points="155.3986,-80.183 153.9987,-84.183 156.7987,-84.1829 "
         id="polygon996" />
      <text
         text-anchor="start"
         x="145.58971"
         y="-96.900002"
         font-family="Times, serif"
         font-style="italic"
         font-size="7px"
         fill="#000000"
         id="text998">r</text>
      <text
         text-anchor="start"
         x="147.92"
         y="-96.900002"
         font-family="Times, serif"
         font-style="italic"
         baseline-shift="sub"
         font-size="4px"
         fill="#000000"
         id="text1000">D</text>
    </g>
    <!-- U -->
    <g
       id="node4-9"
       class="node">
      <title
         id="title1003">U</title>
      <path
         fill="none"
         stroke="#000000"
         d="m 159.0653,-22 c 0,0 -7.3334,0 -7.3334,0 -3.6666,0 -7.3333,3.6667 -7.3333,7.3333 0,0 0,7.3334 0,7.3334 0,3.6666 3.6667,7.3333 7.3333,7.3333 0,0 7.3334,0 7.3334,0 3.6666,0 7.3333,-3.6667 7.3333,-7.3333 0,0 0,-7.3334 0,-7.3334 0,-3.6666 -3.6667,-7.3333 -7.3333,-7.3333"
         id="path1005" />
      <text
         text-anchor="middle"
         x="155.39861"
         y="-6.8000002"
         font-family="Times, serif"
         font-size="14px"
         fill="#000000"
         id="text1007">U</text>
    </g>
    <!-- A&#45;&gt;U -->
    <g
       id="edge7-1"
       class="edge">
      <title
         id="title1010">A-&gt;U</title>
      <path
         fill="none"
         stroke="#00cd00"
         d="m 155.3986,-57.8513 c 0,8.9771 0,21.6895 0,31.6077"
         id="path1012" />
      <polygon
         fill="#00cd00"
         stroke="#00cd00"
         points="155.3986,-22.183 153.9987,-26.183 156.7987,-26.1829 "
         id="polygon1014" />
      <text
         text-anchor="start"
         x="145.58971"
         y="-38.900002"
         font-family="Times, serif"
         font-style="italic"
         font-size="7px"
         fill="#000000"
         id="text1016">r</text>
      <text
         text-anchor="start"
         x="147.92"
         y="-38.900002"
         font-family="Times, serif"
         font-style="italic"
         baseline-shift="sub"
         font-size="4px"
         fill="#000000"
         id="text1018">A</text>
    </g>
    <!-- A&#45;&gt;i -->
    <g
       id="edge9-2"
       class="edge">
      <title
         id="title1021">A:sw-&gt;i:se</title>
      <path
         fill="none"
         stroke="#ffa500"
         stroke-dasharray="5, 2"
         d="m 144.3986,-58 c -19.149,19.149 -41.5922,20.1962 -61.1015,3.1416"
         id="path1023" />
      <polygon
         fill="#ffa500"
         stroke="#ffa500"
         points="79.9419,-58 83.8187,-56.288 81.9049,-54.2441 "
         id="polygon1025" />
      <text
         text-anchor="start"
         x="112.1993"
         y="-49.099998"
         font-family="Times, serif"
         font-size="7px"
         fill="#000000"
         id="text1027">Λ</text>
      <text
         text-anchor="start"
         x="118.0296"
         y="-49.099998"
         font-family="Times, serif"
         font-style="italic"
         baseline-shift="sub"
         font-size="4px"
         fill="#000000"
         id="text1029">i</text>
    </g>
    <!-- U&#45;&gt;S -->
    <g
       id="edge8-7"
       class="edge">
      <title
         id="title1032">U:w-&gt;S:s</title>
      <path
         fill="none"
         stroke="#00cd00"
         d="M 144.3986,-11 C 83.953,-11 14.3464,9.8819 11.1168,-46.7846"
         id="path1034" />
      <polygon
         fill="#00cd00"
         stroke="#00cd00"
         points="11,-51 12.5103,-47.0403 9.7114,-46.9627 "
         id="polygon1036" />
      <text
         text-anchor="start"
         x="73.332901"
         y="-11.1"
         font-family="Times, serif"
         font-style="italic"
         font-size="7px"
         fill="#000000"
         id="text1038">r</text>
      <text
         text-anchor="start"
         x="75.6632"
         y="-11.1"
         font-family="Times, serif"
         font-style="italic"
         baseline-shift="sub"
         font-size="4px"
         fill="#000000"
         id="text1040">U</text>
    </g>
    <!-- U&#45;&gt;i -->
    <g
       id="edge10-0"
       class="edge">
      <title
         id="title1043">U-&gt;i:s</title>
      <path
         fill="none"
         stroke="#ffa500"
         stroke-dasharray="5, 2"
         d="M 144.3505,-12.1365 C 123.5414,-14.9198 80.254,-24.0175 76.2416,-51.7687"
         id="path1045" />
      <polygon
         fill="#ffa500"
         stroke="#ffa500"
         points="75.9419,-56 77.6211,-52.1089 74.8281,-51.9111 "
         id="polygon1047" />
      <text
         text-anchor="start"
         x="112.1993"
         y="-25.1"
         font-family="Times, serif"
         font-size="7px"
         fill="#000000"
         id="text1049">Λ</text>
      <text
         text-anchor="start"
         x="118.0296"
         y="-25.1"
         font-family="Times, serif"
         font-style="italic"
         baseline-shift="sub"
         font-size="4px"
         fill="#000000"
         id="text1051">i</text>
    </g>
    <!-- Tr -->
    <g
       id="node5-9"
       class="node">
      <title
         id="title1054">Tr</title>
      <path
         fill="none"
         stroke="#000000"
         d="m 79.6086,-125 c 0,0 -7.3334,0 -7.3334,0 -3.6666,0 -7.3333,3.6667 -7.3333,7.3333 0,0 0,7.3334 0,7.3334 0,3.6666 3.6667,7.3333 7.3333,7.3333 0,0 7.3334,0 7.3334,0 3.6666,0 7.3333,-3.6667 7.3333,-7.3333 0,0 0,-7.3334 0,-7.3334 0,-3.6666 -3.6667,-7.3333 -7.3333,-7.3333"
         id="path1056" />
      <text
         text-anchor="middle"
         x="75.941902"
         y="-109.8"
         font-family="Times, serif"
         font-size="14px"
         fill="#000000"
         id="text1058">Tr</text>
    </g>
    <!-- Tr&#45;&gt;S -->
    <g
       id="edge2-3"
       class="edge">
      <title
         id="title1061">Tr:w-&gt;S:n</title>
      <path
         fill="none"
         stroke="#00cd00"
         d="m 64.9419,-114 c -28.7017,0 -51.6942,9.89 -53.7866,36.8912"
         id="path1063" />
      <polygon
         fill="#00cd00"
         stroke="#00cd00"
         points="11,-73 9.7521,-77.05 12.5501,-76.9442 "
         id="polygon1065" />
      <text
         text-anchor="start"
         x="41.084"
         y="-116.1"
         font-family="Times, serif"
         font-style="italic"
         font-size="7px"
         fill="#000000"
         id="text1067">r</text>
      <text
         text-anchor="start"
         x="43.414299"
         y="-116.1"
         font-family="Times, serif"
         font-style="italic"
         baseline-shift="sub"
         font-size="4px"
         fill="#000000"
         id="text1069">T</text>
    </g>
    <!-- i&#45;&gt;D -->
    <g
       id="edge3-6"
       class="edge">
      <title
         id="title1072">i-&gt;D</title>
      <path
         fill="none"
         stroke="#ffa500"
         d="m 80.2138,-65.4947 c 11.2418,-9.1963 42.0522,-34.401 60.557,-49.5389"
         id="path1074" />
      <polygon
         fill="#ffa500"
         stroke="#ffa500"
         points="144.2982,-117.9193 142.0886,-114.3029 140.3157,-116.4701 "
         id="polygon1076" />
      <text
         text-anchor="start"
         x="104.9419"
         y="-106.1"
         font-family="Times, serif"
         font-style="italic"
         font-size="7px"
         fill="#000000"
         id="text1078">ϕ</text>
      <text
         text-anchor="start"
         x="109.0222"
         y="-106.1"
         font-family="Times, serif"
         font-style="italic"
         baseline-shift="sub"
         font-size="4px"
         fill="#000000"
         id="text1080">i</text>
      <text
         text-anchor="start"
         x="111.1338"
         y="-106.1"
         font-family="Times, serif"
         font-style="italic"
         font-size="7px"
         fill="#000000"
         id="text1082">(1-f</text>
      <text
         text-anchor="start"
         x="121.6247"
         y="-106.1"
         font-family="Times, serif"
         font-style="italic"
         baseline-shift="sub"
         font-size="4px"
         fill="#000000"
         id="text1084">T</text>
      <text
         text-anchor="start"
         x="124.0683"
         y="-106.1"
         font-family="Times, serif"
         font-size="7px"
         fill="#000000"
         id="text1086">)</text>
    </g>
    <!-- i&#45;&gt;A -->
    <g
       id="edge4-0"
       class="edge">
      <title
         id="title1089">i-&gt;A</title>
      <path
         fill="none"
         stroke="#ffa500"
         d="m 81.6882,-63.22 c 5.8286,-1.1832 15.1245,-2.9218 23.2537,-3.78 11.7479,-1.2402 25.108,-1.7289 35.1282,-1.9136"
         id="path1091" />
      <polygon
         fill="#ffa500"
         stroke="#ffa500"
         points="144.1456,-68.9755 140.1673,-67.5149 140.1248,-70.3145 "
         id="polygon1093" />
      <text
         text-anchor="start"
         x="110.1591"
         y="-72.099998"
         font-family="Times, serif"
         font-style="italic"
         font-size="7px"
         fill="#000000"
         id="text1095">1-ϕ</text>
      <text
         text-anchor="start"
         x="120.0697"
         y="-72.099998"
         font-family="Times, serif"
         font-style="italic"
         baseline-shift="sub"
         font-size="4px"
         fill="#000000"
         id="text1097">i</text>
    </g>
    <!-- i&#45;&gt;Tr -->
    <g
       id="edge5-6"
       class="edge">
      <title
         id="title1100">i-&gt;Tr</title>
      <path
         fill="none"
         stroke="#ffa500"
         d="m 75.9419,-67.5649 c 0,-7.4016 0,-20.772 0,-31.2712"
         id="path1102" />
      <polygon
         fill="#ffa500"
         stroke="#ffa500"
         points="75.9419,-102.8447 77.342,-98.8447 74.542,-98.8447 "
         id="polygon1104" />
      <text
         text-anchor="start"
         x="63.258999"
         y="-84.150002"
         font-family="Times, serif"
         font-style="italic"
         font-size="7px"
         fill="#000000"
         id="text1106">ϕ</text>
      <text
         text-anchor="start"
         x="67.339302"
         y="-84.150002"
         font-family="Times, serif"
         font-style="italic"
         baseline-shift="sub"
         font-size="4px"
         fill="#000000"
         id="text1108">i</text>
      <text
         text-anchor="start"
         x="69.450897"
         y="-84.150002"
         font-family="Times, serif"
         font-style="italic"
         font-size="7px"
         fill="#000000"
         id="text1110">f</text>
      <text
         text-anchor="start"
         x="71.781197"
         y="-84.150002"
         font-family="Times, serif"
         font-style="italic"
         baseline-shift="sub"
         font-size="4px"
         fill="#000000"
         id="text1112">T</text>
    </g>
  </g>
</svg>
