<?xml version="1.0" encoding="UTF-8" standalone="no"?>
<!-- Generated by graphviz version 2.40.1 (20161225.0304)
 -->

<!-- Title: %0 Pages: 1 -->

<svg
   width="255pt"
   height="174pt"
   viewBox="0 0 254.9846 174"
   version="1.1"
   id="svg184"
   sodipodi:docname="Model_mos_figure.svg"
   inkscape:version="1.1.2 (0a00cf5339, 2022-02-04)"
   xmlns:inkscape="http://www.inkscape.org/namespaces/inkscape"
   xmlns:sodipodi="http://sodipodi.sourceforge.net/DTD/sodipodi-0.dtd"
   xmlns="http://www.w3.org/2000/svg"
   xmlns:svg="http://www.w3.org/2000/svg">
  <defs
     id="defs188">
    <inkscape:path-effect
       effect="fillet_chamfer"
       id="path-effect1388"
       is_visible="true"
       lpeversion="1"
       satellites_param="F,0,0,1,0,11.25,0,1 @ F,0,0,1,0,11.25,0,1 @ F,0,0,1,0,11.25,0,1 @ F,0,0,1,0,11.25,0,1"
       unit="px"
       method="auto"
       mode="F"
       radius="15"
       chamfer_steps="1"
       flexible="false"
       use_knot_distance="true"
       apply_no_radius="true"
       apply_with_radius="true"
       only_selected="false"
       hide_knots="false" />
    <inkscape:path-effect
       effect="fillet_chamfer"
       id="path-effect1388-2"
       is_visible="true"
       lpeversion="1"
       satellites_param="F,0,0,1,0,11.25,0,1 @ F,0,0,1,0,11.25,0,1 @ F,0,0,1,0,11.25,0,1 @ F,0,0,1,0,11.25,0,1"
       unit="px"
       method="auto"
       mode="F"
       radius="15"
       chamfer_steps="1"
       flexible="false"
       use_knot_distance="true"
       apply_no_radius="true"
       apply_with_radius="true"
       only_selected="false"
       hide_knots="false" />
  </defs>
  <sodipodi:namedview
     id="namedview186"
     pagecolor="#ffffff"
     bordercolor="#666666"
     borderopacity="1.0"
     inkscape:pageshadow="2"
     inkscape:pageopacity="0.0"
     inkscape:pagecheckerboard="true"
     inkscape:document-units="pt"
     showgrid="false"
     showguides="false"
     width="166pt"
     inkscape:zoom="1.5450901"
     inkscape:cx="163.09729"
     inkscape:cy="146.5934"
     inkscape:window-width="1846"
     inkscape:window-height="1016"
     inkscape:window-x="74"
     inkscape:window-y="27"
     inkscape:window-maximized="1"
     inkscape:current-layer="node1-9" />
  <path
     style="opacity:0.47;fill:#ffeeaa;fill-opacity:1;stroke-width:0.75"
     id="rect1306-8"
     width="152.1729"
     height="63.311996"
     x="2.9949999"
     y="108.30651"
     inkscape:path-effect="#path-effect1388-2"
     sodipodi:type="rect"
     d="m 14.245,108.30651 129.6729,0 a 11.25,11.25 45 0 1 11.25,11.25 v 40.812 a 11.25,11.25 135 0 1 -11.25,11.25 l -129.6729,0 a 11.25,11.25 45 0 1 -11.2500001,-11.25 v -40.812 A 11.25,11.25 135 0 1 14.245,108.30651 Z" />
  <path
     style="opacity:0.47;fill:#aaeeff;fill-opacity:1;stroke-width:0.75"
     id="rect1306"
     width="152.56503"
     height="63.046432"
     x="2.9949999"
     y="1.7997215"
     inkscape:path-effect="#path-effect1388"
     d="m 14.245,1.7997215 h 130.06503 a 11.25,11.25 45 0 1 11.25,11.2499995 v 40.546433 a 11.25,11.25 135 0 1 -11.25,11.25 H 14.245 a 11.25,11.25 45 0 1 -11.2500001,-11.25 V 13.049721 A 11.25,11.25 135 0 1 14.245,1.7997215 Z"
     sodipodi:type="rect" />
  <g
     id="graph0-0"
     class="graph"
     transform="translate(-5.0403803,169.91383)">
    <title
       id="title758">%0</title>
    <!-- NonExistent -->
    <g
       id="node1-9"
       class="node">
      <title
         id="title760">NonExistent</title>
      <path
         fill="none"
         stroke="#000000"
         d="m 108.8021,-94 c 0,0 -50.3333,0 -50.3333,0 -3.6667,0 -7.3334,3.6667 -7.3334,7.3333 0,0 0,7.3334 0,7.3334 0,3.6666 3.6667,7.3333 7.3334,7.3333 0,0 50.3333,0 50.3333,0 3.6667,0 7.3333,-3.6667 7.3333,-7.3333 0,0 0,-7.3334 0,-7.3334 0,-3.6666 -3.6666,-7.3333 -7.3333,-7.3333"
         id="path762" />
      <text
         text-anchor="middle"
         x="83.635399"
         y="-80.300003"
         font-family="Times, serif"
         font-size="9px"
         fill="#000000"
         id="text764">NonExistent</text>
      <text
         text-anchor="middle"
         x="135.83272"
         y="-15.697733"
         font-family="Times, serif"
         font-size="9px"
         fill="#000000"
         id="text764-9"
         style="font-size:7px"><tspan
           sodipodi:role="line"
           id="tspan5520"
           x="135.83272"
           y="-15.697733"
           style="font-size:7px">Adult</tspan><tspan
           sodipodi:role="line"
           id="tspan5522"
           x="135.83272"
           y="-6.9477329"
           style="font-size:7px">mosquitoes</tspan></text>
      <text
         text-anchor="middle"
         x="137.44601"
         y="-157.85353"
         font-family="Times, serif"
         font-size="9px"
         fill="#000000"
         id="text764-9-7"
         style="font-size:7px"><tspan
           sodipodi:role="line"
           id="tspan2760"
           x="137.44601"
           y="-157.85353"
           style="font-size:7px">Juvenile</tspan><tspan
           sodipodi:role="line"
           x="137.44601"
           y="-149.10353"
           id="tspan4536"
           style="font-size:7px">mosquitoes</tspan><tspan
           sodipodi:role="line"
           id="tspan2762"
           x="137.44601"
           y="-140.35353"
           style="font-size:7px" /></text>
    </g>
    <!-- P -->
    <g
       id="node2-3"
       class="node">
      <title
         id="title767">P</title>
      <path
         fill="none"
         stroke="#000000"
         d="m 149.6559,-130 c 0,0 -7.3333,0 -7.3333,0 -3.6667,0 -7.3333,3.6667 -7.3333,7.3333 0,0 0,7.3334 0,7.3334 0,3.6666 3.6666,7.3333 7.3333,7.3333 0,0 7.3333,0 7.3333,0 3.6667,0 7.3334,-3.6667 7.3334,-7.3333 0,0 0,-7.3334 0,-7.3334 0,-3.6666 -3.6667,-7.3333 -7.3334,-7.3333"
         id="path769" />
      <text
         text-anchor="middle"
         x="145.9893"
         y="-116.3"
         font-family="Times, serif"
         font-size="9px"
         fill="#000000"
         id="text771">P</text>
    </g>
    <!-- NonExistent&#45;&gt;P -->
    <g
       id="edge1-6"
       class="edge">
      <title
         id="title774">NonExistent-&gt;P</title>
      <path
         fill="none"
         stroke="#ff0000"
         d="m 105.7563,-95.7715 c 9.828,-5.6742 20.9707,-12.1074 29.0336,-16.7625"
         id="path776" />
      <polygon
         fill="#ff0000"
         stroke="#ff0000"
         points="106.1459,-94.784 103.0228,-94.1933 105.0958,-96.6027 "
         id="polygon778" />
      <text
         text-anchor="start"
         x="114.1928"
         y="-107.2528"
         font-family="Times, serif"
         font-style="italic"
         font-size="7px"
         fill="#000000"
         id="text780">µ</text>
      <text
         text-anchor="start"
         x="118.2731"
         y="-107.2528"
         font-family="Times, serif"
         font-style="italic"
         baseline-shift="sub"
         font-size="4px"
         fill="#000000"
         id="text782">p</text>
    </g>
    <!-- L -->
    <g
       id="node3-0"
       class="node">
      <title
         id="title785">L</title>
      <path
         fill="none"
         stroke="#000000"
         d="m 87.3021,-166 c 0,0 -7.3333,0 -7.3333,0 -3.6667,0 -7.3334,3.6667 -7.3334,7.3333 0,0 0,7.3334 0,7.3334 0,3.6666 3.6667,7.3333 7.3334,7.3333 0,0 7.3333,0 7.3333,0 3.6667,0 7.3333,-3.6667 7.3333,-7.3333 0,0 0,-7.3334 0,-7.3334 0,-3.6666 -3.6666,-7.3333 -7.3333,-7.3333"
         id="path787" />
      <text
         text-anchor="middle"
         x="83.635399"
         y="-152.3"
         font-family="Times, serif"
         font-size="9px"
         fill="#000000"
         id="text789">L</text>
    </g>
    <!-- NonExistent&#45;&gt;L -->
    <g
       id="edge2-6"
       class="edge">
      <title
         id="title792">NonExistent-&gt;L</title>
      <path
         fill="none"
         stroke="#ff0000"
         d="m 83.6354,-97.5567 c 0,-13.5829 0,-33.5737 0,-46.0347"
         id="path794" />
      <polygon
         fill="#ff0000"
         stroke="#ff0000"
         points="84.6855,-97.25 83.6354,-94.25 82.5855,-97.25 "
         id="polygon796" />
      <text
         text-anchor="start"
         x="77.555099"
         y="-123.6741"
         font-family="Times, serif"
         font-style="italic"
         font-size="7px"
         fill="#000000"
         id="text798">µ</text>
      <text
         text-anchor="start"
         x="81.635399"
         y="-123.6741"
         font-family="Times, serif"
         font-style="italic"
         baseline-shift="sub"
         font-size="4px"
         fill="#000000"
         id="text800">p</text>
    </g>
    <!-- E -->
    <g
       id="node4-2"
       class="node">
      <title
         id="title803">E</title>
      <path
         fill="none"
         stroke="#000000"
         d="m 24.9483,-130 c 0,0 -7.3334,0 -7.3334,0 -3.6666,0 -7.3333,3.6667 -7.3333,7.3333 0,0 0,7.3334 0,7.3334 0,3.6666 3.6667,7.3333 7.3333,7.3333 0,0 7.3334,0 7.3334,0 3.6666,0 7.3333,-3.6667 7.3333,-7.3333 0,0 0,-7.3334 0,-7.3334 0,-3.6666 -3.6667,-7.3333 -7.3333,-7.3333"
         id="path805" />
      <text
         text-anchor="middle"
         x="21.281601"
         y="-116.3"
         font-family="Times, serif"
         font-size="9px"
         fill="#000000"
         id="text807">E</text>
    </g>
    <!-- NonExistent&#45;&gt;E -->
    <g
       id="edge3-6"
       class="edge">
      <title
         id="title810">NonExistent-&gt;E</title>
      <path
         fill="none"
         stroke="#ff0000"
         d="m 61.5146,-95.7715 c -9.828,-5.6742 -20.9708,-12.1074 -29.0336,-16.7625"
         id="path812" />
      <polygon
         fill="#ff0000"
         stroke="#ff0000"
         points="62.175,-96.6027 64.2481,-94.1933 61.125,-94.784 "
         id="polygon814" />
      <text
         text-anchor="start"
         x="40.9175"
         y="-107.2528"
         font-family="Times, serif"
         font-style="italic"
         font-size="7px"
         fill="#000000"
         id="text816">µ</text>
      <text
         text-anchor="start"
         x="44.997799"
         y="-107.2528"
         font-family="Times, serif"
         font-style="italic"
         baseline-shift="sub"
         font-size="4px"
         fill="#000000"
         id="text818">p</text>
    </g>
    <!-- Im -->
    <g
       id="node5-1"
       class="node">
      <title
         id="title821">Im</title>
      <path
         fill="none"
         stroke="#000000"
         d="m 24.9483,-58 c 0,0 -7.3334,0 -7.3334,0 -3.6666,0 -7.3333,3.6667 -7.3333,7.3333 0,0 0,7.3334 0,7.3334 0,3.6666 3.6667,7.3333 7.3333,7.3333 0,0 7.3334,0 7.3334,0 3.6666,0 7.3333,-3.6667 7.3333,-7.3333 0,0 0,-7.3334 0,-7.3334 0,-3.6666 -3.6667,-7.3333 -7.3333,-7.3333"
         id="path823" />
      <text
         text-anchor="middle"
         x="21.281601"
         y="-44.299999"
         font-family="Times, serif"
         font-size="9px"
         fill="#000000"
         id="text825">Im</text>
    </g>
    <!-- NonExistent&#45;&gt;Im -->
    <g
       id="edge4-8"
       class="edge">
      <title
         id="title828">NonExistent-&gt;Im</title>
      <path
         fill="none"
         stroke="#ff0000"
         d="m 61.5146,-70.2285 c -9.828,5.6742 -20.9708,12.1074 -29.0336,16.7625"
         id="path830" />
      <polygon
         fill="#ff0000"
         stroke="#ff0000"
         points="61.125,-71.216 64.2481,-71.8067 62.175,-69.3973 "
         id="polygon832" />
      <text
         text-anchor="start"
         x="39.805901"
         y="-64.947197"
         font-family="Times, serif"
         font-style="italic"
         font-size="7px"
         fill="#000000"
         id="text834">µ</text>
      <text
         text-anchor="start"
         x="43.8862"
         y="-64.947197"
         font-family="Times, serif"
         font-style="italic"
         baseline-shift="sub"
         font-size="4px"
         fill="#000000"
         id="text836">m</text>
    </g>
    <!-- Pm -->
    <g
       id="node6-7"
       class="node">
      <title
         id="title839">Pm</title>
      <path
         fill="none"
         stroke="#000000"
         d="m 87.3021,-22 c 0,0 -7.3333,0 -7.3333,0 -3.6667,0 -7.3334,3.6667 -7.3334,7.3333 0,0 0,7.3334 0,7.3334 0,3.6666 3.6667,7.3333 7.3334,7.3333 0,0 7.3333,0 7.3333,0 3.6667,0 7.3333,-3.6667 7.3333,-7.3333 0,0 0,-7.3334 0,-7.3334 0,-3.6666 -3.6666,-7.3333 -7.3333,-7.3333"
         id="path841" />
      <text
         text-anchor="middle"
         x="83.635399"
         y="-8.3000002"
         font-family="Times, serif"
         font-size="9px"
         fill="#000000"
         id="text843">Pm</text>
    </g>
    <!-- NonExistent&#45;&gt;Pm -->
    <g
       id="edge5-9"
       class="edge">
      <title
         id="title846">NonExistent-&gt;Pm</title>
      <path
         fill="none"
         stroke="#ff0000"
         d="m 83.6354,-68.4433 c 0,13.5829 0,33.5737 0,46.0347"
         id="path848" />
      <polygon
         fill="#ff0000"
         stroke="#ff0000"
         points="82.5855,-68.75 83.6354,-71.75 84.6855,-68.75 "
         id="polygon850" />
      <text
         text-anchor="start"
         x="76.443497"
         y="-48.525902"
         font-family="Times, serif"
         font-style="italic"
         font-size="7px"
         fill="#000000"
         id="text852">µ</text>
      <text
         text-anchor="start"
         x="80.523804"
         y="-48.525902"
         font-family="Times, serif"
         font-style="italic"
         baseline-shift="sub"
         font-size="4px"
         fill="#000000"
         id="text854">m</text>
    </g>
    <!-- Sm -->
    <g
       id="node7-2"
       class="node">
      <title
         id="title857">Sm</title>
      <path
         fill="none"
         stroke="#000000"
         d="m 149.6559,-58 c 0,0 -7.3333,0 -7.3333,0 -3.6667,0 -7.3333,3.6667 -7.3333,7.3333 0,0 0,7.3334 0,7.3334 0,3.6666 3.6666,7.3333 7.3333,7.3333 0,0 7.3333,0 7.3333,0 3.6667,0 7.3334,-3.6667 7.3334,-7.3333 0,0 0,-7.3334 0,-7.3334 0,-3.6666 -3.6667,-7.3333 -7.3334,-7.3333"
         id="path859" />
      <text
         text-anchor="middle"
         x="145.9893"
         y="-44.299999"
         font-family="Times, serif"
         font-size="9px"
         fill="#000000"
         id="text861">Sm</text>
    </g>
    <!-- NonExistent&#45;&gt;Sm -->
    <g
       id="edge6-0"
       class="edge">
      <title
         id="title864">NonExistent-&gt;Sm</title>
      <path
         fill="none"
         stroke="#ff0000"
         d="m 105.7563,-70.2285 c 9.828,5.6742 20.9707,12.1074 29.0336,16.7625"
         id="path866" />
      <polygon
         fill="#ff0000"
         stroke="#ff0000"
         points="105.0958,-69.3973 103.0228,-71.8067 106.1459,-71.216 "
         id="polygon868" />
      <text
         text-anchor="start"
         x="113.0812"
         y="-64.947197"
         font-family="Times, serif"
         font-style="italic"
         font-size="7px"
         fill="#000000"
         id="text870">µ</text>
      <text
         text-anchor="start"
         x="117.1615"
         y="-64.947197"
         font-family="Times, serif"
         font-style="italic"
         baseline-shift="sub"
         font-size="4px"
         fill="#000000"
         id="text872">m</text>
    </g>
    <!-- P&#45;&gt;Sm -->
    <g
       id="edge9-2"
       class="edge">
      <title
         id="title875">P-&gt;Sm</title>
      <path
         fill="none"
         stroke="#00cd00"
         d="m 145.9893,-107.75 c 0,12.1866 0,31.7071 0,45.3208"
         id="path877" />
      <polygon
         fill="#00cd00"
         stroke="#00cd00"
         points="147.3894,-62.4086 145.9893,-58.4086 144.5894,-62.4086 "
         id="polygon879" />
      <text
         text-anchor="start"
         x="141.43539"
         y="-88.189598"
         font-family="Times, serif"
         font-style="italic"
         font-size="7px"
         fill="#000000"
         id="text881">r</text>
      <text
         text-anchor="start"
         x="143.7657"
         y="-88.189598"
         font-family="Times, serif"
         font-style="italic"
         baseline-shift="sub"
         font-size="4px"
         fill="#000000"
         id="text883">P</text>
    </g>
    <!-- L&#45;&gt;P -->
    <g
       id="edge8-3"
       class="edge">
      <title
         id="title886">L-&gt;P</title>
      <path
         fill="none"
         stroke="#00cd00"
         d="m 94.783,-148.5639 c 10.197,5.8872 25.351,14.6364 36.5295,21.0903"
         id="path888" />
      <polygon
         fill="#00cd00"
         stroke="#00cd00"
         points="132.1741,-128.5928 134.9382,-125.3804 130.774,-126.168 "
         id="polygon890" />
      <text
         text-anchor="start"
         x="108.2739"
         y="-141.1188"
         font-family="Times, serif"
         font-style="italic"
         font-size="7px"
         fill="#000000"
         id="text892">r</text>
      <text
         text-anchor="start"
         x="110.6042"
         y="-141.1188"
         font-family="Times, serif"
         font-style="italic"
         baseline-shift="sub"
         font-size="4px"
         fill="#000000"
         id="text894">L</text>
    </g>
    <!-- E&#45;&gt;L -->
    <g
       id="edge7-7"
       class="edge">
      <title
         id="title897">E-&gt;L</title>
      <path
         fill="none"
         stroke="#00cd00"
         d="m 32.4292,-125.4361 c 10.1969,-5.8872 25.351,-14.6364 36.5295,-21.0903"
         id="path899" />
      <polygon
         fill="#00cd00"
         stroke="#00cd00"
         points="68.4202,-147.832 72.5843,-148.6196 69.8202,-145.4072 "
         id="polygon901" />
      <text
         text-anchor="start"
         x="43.476398"
         y="-139.08121"
         font-family="Times, serif"
         font-style="italic"
         font-size="7px"
         fill="#000000"
         id="text903">r</text>
      <text
         text-anchor="start"
         x="45.806702"
         y="-139.08121"
         font-family="Times, serif"
         font-style="italic"
         baseline-shift="sub"
         font-size="4px"
         fill="#000000"
         id="text905">EL</text>
    </g>
    <!-- Im&#45;&gt;E -->
    <g
       id="edge12-5"
       class="edge">
      <title
         id="title908">Im-&gt;E</title>
    </g>
    <!-- Pm&#45;&gt;Im -->
    <g
       id="edge11-9"
       class="edge">
      <title
         id="title911">Pm-&gt;Im</title>
      <path
         fill="none"
         stroke="#ffa500"
         d="M 72.4878,-17.4361 C 62.2909,-23.3233 47.1368,-32.0725 35.9584,-38.5264"
         id="path913" />
      <polygon
         fill="#ffa500"
         stroke="#ffa500"
         points="35.0968,-37.4072 32.3327,-40.6196 36.4968,-39.832 "
         id="polygon915" />
      <text
         text-anchor="start"
         x="32.941502"
         y="-31.0812"
         font-family="Times, serif"
         font-style="italic"
         font-size="7px"
         fill="#000000"
         id="text917">????</text>
      <text
         text-anchor="start"
         x="45.370701"
         y="-31.0812"
         font-family="Times, serif"
         font-size="7px"
         fill="#000000"
         id="text919" />
      <text
         text-anchor="start"
         x="47.120701"
         y="-31.0812"
         font-family="Times, serif"
         font-style="italic"
         baseline-shift="sub"
         font-size="4px"
         fill="#000000"
         id="text921">????</text>
    </g>
    <!-- Sm&#45;&gt;Pm -->
    <g
       id="edge10-2"
       class="edge">
      <title
         id="title924">Sm-&gt;Pm</title>
      <path
         fill="none"
         stroke="#ffa500"
         d="m 134.8416,-40.5639 c -10.1969,5.8872 -25.3509,14.6364 -36.5294,21.0903"
         id="path926" />
      <polygon
         fill="#ffa500"
         stroke="#ffa500"
         points="98.8507,-18.168 94.6865,-17.3804 97.4506,-20.5928 "
         id="polygon928" />
      <text
         text-anchor="start"
         x="95.295303"
         y="-33.118801"
         font-family="Times, serif"
         font-style="italic"
         font-size="7px"
         fill="#000000"
         id="text930">????</text>
      <text
         text-anchor="start"
         x="107.7245"
         y="-33.118801"
         font-family="Times, serif"
         font-size="7px"
         fill="#000000"
         id="text932" />
      <text
         text-anchor="start"
         x="109.4745"
         y="-33.118801"
         font-family="Times, serif"
         font-style="italic"
         baseline-shift="sub"
         font-size="4px"
         fill="#000000"
         id="text934">????</text>
    </g>
  </g>
  <g
     id="graph0"
     class="graph"
     transform="matrix(0.64684629,0,0,0.64684629,162.58238,105.71913)">
    <title
       id="title6146">%0</title>
    <polygon
       fill="#ffffff"
       stroke="transparent"
       points="113,-61 113,4 -4,4 -4,-61 "
       id="polygon6148" />
    <!-- g2 -->
    <g
       id="node1"
       class="node">
      <title
         id="title6150">g2</title>
      <text
         text-anchor="start"
         x="46.063499"
         y="-50.5"
         font-family="Times, serif"
         font-size="10px"
         fill="#000000"
         id="text6152">Development</text>
    </g>
    <!-- y2 -->
    <g
       id="node2"
       class="node">
      <title
         id="title6155">y2</title>
      <text
         text-anchor="start"
         x="54.952999"
         y="-25.5"
         font-family="Times, serif"
         font-size="10px"
         fill="#000000"
         id="text6157">Infection</text>
    </g>
    <!-- r2 -->
    <g
       id="node3"
       class="node">
      <title
         id="title6160">r2</title>
      <text
         text-anchor="start"
         x="54.113499"
         y="-0.5"
         font-family="Times, serif"
         font-size="10px"
         fill="#000000"
         id="text6162">Mortality</text>
    </g>
    <!-- y1 -->
    <g
       id="node4"
       class="node">
      <title
         id="title6165">y1</title>
    </g>
    <!-- y1&#45;&gt;y2 -->
    <g
       id="edge1"
       class="edge">
      <title
         id="title6168">y1-&gt;y2</title>
      <path
         fill="none"
         stroke="#ffa500"
         d="m 1.3142,-28.5 c 4.281,0 24.6688,0 42.6126,0"
         id="path6170" />
      <polygon
         fill="#ffa500"
         stroke="#ffa500"
         points="43.9481,-27.1001 43.9481,-29.9001 47.9481,-28.5 "
         id="polygon6172" />
    </g>
    <!-- r1 -->
    <g
       id="node5"
       class="node">
      <title
         id="title6175">r1</title>
    </g>
    <!-- y1&#45;&gt;r1 -->
    <g
       id="edge5"
       class="edge">
      <title
         id="title6178">y1-&gt;r1</title>
    </g>
    <!-- r1&#45;&gt;r2 -->
    <g
       id="edge2"
       class="edge">
      <title
         id="title6181">r1-&gt;r2</title>
      <path
         fill="none"
         stroke="#ff0000"
         d="m 1.3142,-3.5 c 4.281,0 24.6688,0 42.6126,0"
         id="path6183" />
      <polygon
         fill="#ff0000"
         stroke="#ff0000"
         points="43.9481,-2.1001 43.9481,-4.9001 47.9481,-3.5 "
         id="polygon6185" />
    </g>
    <!-- g1 -->
    <g
       id="node6"
       class="node">
      <title
         id="title6188">g1</title>
    </g>
    <!-- g1&#45;&gt;g2 -->
    <g
       id="edge3"
       class="edge">
      <title
         id="title6191">g1-&gt;g2</title>
      <path
         fill="none"
         stroke="#00cd00"
         d="m 1.3142,-53.5 c 3.4128,0 17.0614,0 31.5479,0"
         id="path6193" />
      <polygon
         fill="#00cd00"
         stroke="#00cd00"
         points="32.9624,-52.1001 32.9624,-54.9001 36.9624,-53.5 "
         id="polygon6195" />
    </g>
    <!-- g1&#45;&gt;y1 -->
    <g
       id="edge4"
       class="edge">
      <title
         id="title6198">g1-&gt;y1</title>
    </g>
  </g>
</svg>
