<?xml version="1.0" encoding="UTF-8" standalone="no"?>
<!-- Generated by graphviz version 2.40.1 (20161225.0304)
 -->

<!-- Title: %0 Pages: 1 -->

<svg
   width="173pt"
   height="88pt"
   viewBox="0 0 173.4 88"
   version="1.1"
   id="svg173"
   sodipodi:docname="Model_human.svg"
   inkscape:version="1.1.2 (0a00cf5339, 2022-02-04)"
   xmlns:inkscape="http://www.inkscape.org/namespaces/inkscape"
   xmlns:sodipodi="http://sodipodi.sourceforge.net/DTD/sodipodi-0.dtd"
   xmlns="http://www.w3.org/2000/svg"
   xmlns:svg="http://www.w3.org/2000/svg">
  <defs
     id="defs177" />
  <sodipodi:namedview
     id="namedview175"
     pagecolor="#ffffff"
     bordercolor="#666666"
     borderopacity="1.0"
     inkscape:pageshadow="2"
     inkscape:pageopacity="0.0"
     inkscape:pagecheckerboard="0"
     inkscape:document-units="pt"
     showgrid="false"
     inkscape:zoom="1.288623"
     inkscape:cx="-107.86708"
     inkscape:cy="75.662159"
     inkscape:window-width="1846"
     inkscape:window-height="1016"
     inkscape:window-x="74"
     inkscape:window-y="27"
     inkscape:window-maximized="1"
     inkscape:current-layer="svg173"
     height="145pt" />
  <g
     id="graph0"
     class="graph"
     transform="matrix(0.58933118,0,0,0.58933118,5.2968475,85.01667)">
    <title
       id="title2">%0</title>
    <polygon
       fill="#ffffff"
       stroke="transparent"
       points="-4,-142 169.3986,-142 169.3986,4 -4,4 "
       id="polygon4" />
    <!-- S -->
    <g
       id="node1"
       class="node">
      <title
         id="title6">S</title>
      <path
         fill="none"
         stroke="#000000"
         d="m 14.6667,-73 c 0,0 -7.3334,0 -7.3334,0 C 3.6667,-73 0,-69.3333 0,-65.6667 c 0,0 0,7.3334 0,7.3334 0,3.6666 3.6667,7.3333 7.3333,7.3333 0,0 7.3334,0 7.3334,0 3.6666,0 7.3333,-3.6667 7.3333,-7.3333 0,0 0,-7.3334 0,-7.3334 C 22,-69.3333 18.3333,-73 14.6667,-73"
         id="path8" />
      <text
         text-anchor="middle"
         x="11"
         y="-57.799999"
         font-family="Times, serif"
         font-size="14px"
         fill="#000000"
         id="text10">S</text>
    </g>
    <!-- i -->
    <g
       id="node6"
       class="node">
      <title
         id="title13">i</title>
      <circle
         fill="none"
         stroke="#000000"
         cx="75.941902"
         cy="-62"
         id="ellipse15"
         r="5.5" />
    </g>
    <!-- S&#45;&gt;i -->
    <g
       id="edge1"
       class="edge">
      <title
         id="title18">S-&gt;i</title>
      <path
         fill="none"
         stroke="#ffa500"
         d="m 22.0165,-62 c 12.2677,0 31.9306,0 43.8178,0"
         id="path20" />
      <polygon
         fill="#ffa500"
         stroke="#ffa500"
         points="70.1216,-62 66.1216,-60.6001 66.1216,-63.4001 "
         id="polygon22" />
      <text
         text-anchor="start"
         x="40"
         y="-65.099998"
         font-family="Times, serif"
         font-style="italic"
         font-size="7px"
         fill="#000000"
         id="text24">Λ</text>
      <text
         text-anchor="start"
         x="44.080299"
         y="-65.099998"
         font-family="Times, serif"
         font-size="7px"
         fill="#000000"
         id="text26" />
      <text
         text-anchor="start"
         x="45.830299"
         y="-65.099998"
         font-family="Times, serif"
         font-style="italic"
         baseline-shift="sub"
         font-size="4px"
         fill="#000000"
         id="text28">i</text>
    </g>
    <!-- D -->
    <g
       id="node2"
       class="node">
      <title
         id="title31">D</title>
      <path
         fill="none"
         stroke="#000000"
         d="m 158.0653,-138 c 0,0 -7.3334,0 -7.3334,0 -3.6666,0 -7.3333,3.6667 -7.3333,7.3333 0,0 0,7.3334 0,7.3334 0,3.6666 3.6667,7.3333 7.3333,7.3333 0,0 7.3334,0 7.3334,0 3.6666,0 7.3333,-3.6667 7.3333,-7.3333 0,0 0,-7.3334 0,-7.3334 0,-3.6666 -3.6667,-7.3333 -7.3333,-7.3333"
         id="path33" />
      <text
         text-anchor="middle"
         x="154.39861"
         y="-122.8"
         font-family="Times, serif"
         font-size="14px"
         fill="#000000"
         id="text35">D</text>
    </g>
    <!-- A -->
    <g
       id="node3"
       class="node">
      <title
         id="title38">A</title>
      <path
         fill="none"
         stroke="#000000"
         d="m 158.0653,-80 c 0,0 -7.3334,0 -7.3334,0 -3.6666,0 -7.3333,3.6667 -7.3333,7.3333 0,0 0,7.3334 0,7.3334 0,3.6666 3.6667,7.3333 7.3333,7.3333 0,0 7.3334,0 7.3334,0 3.6666,0 7.3333,-3.6667 7.3333,-7.3333 0,0 0,-7.3334 0,-7.3334 0,-3.6666 -3.6667,-7.3333 -7.3333,-7.3333"
         id="path40" />
      <text
         text-anchor="middle"
         x="154.39861"
         y="-64.800003"
         font-family="Times, serif"
         font-size="14px"
         fill="#000000"
         id="text42">A</text>
    </g>
    <!-- D&#45;&gt;A -->
    <g
       id="edge6"
       class="edge">
      <title
         id="title45">D-&gt;A</title>
      <path
         fill="none"
         stroke="#00cd00"
         d="m 154.3986,-115.8513 c 0,8.9771 0,21.6895 0,31.6077"
         id="path47" />
      <polygon
         fill="#00cd00"
         stroke="#00cd00"
         points="154.3986,-80.183 152.9987,-84.183 155.7987,-84.1829 "
         id="polygon49" />
      <text
         text-anchor="start"
         x="144.58971"
         y="-96.900002"
         font-family="Times, serif"
         font-style="italic"
         font-size="7px"
         fill="#000000"
         id="text51">r</text>
      <text
         text-anchor="start"
         x="146.92"
         y="-96.900002"
         font-family="Times, serif"
         font-style="italic"
         baseline-shift="sub"
         font-size="4px"
         fill="#000000"
         id="text53">D</text>
    </g>
    <!-- U -->
    <g
       id="node4"
       class="node">
      <title
         id="title56">U</title>
      <path
         fill="none"
         stroke="#000000"
         d="m 158.0653,-22 c 0,0 -7.3334,0 -7.3334,0 -3.6666,0 -7.3333,3.6667 -7.3333,7.3333 0,0 0,7.3334 0,7.3334 0,3.6666 3.6667,7.3333 7.3333,7.3333 0,0 7.3334,0 7.3334,0 3.6666,0 7.3333,-3.6667 7.3333,-7.3333 0,0 0,-7.3334 0,-7.3334 0,-3.6666 -3.6667,-7.3333 -7.3333,-7.3333"
         id="path58" />
      <text
         text-anchor="middle"
         x="154.39861"
         y="-6.8000002"
         font-family="Times, serif"
         font-size="14px"
         fill="#000000"
         id="text60">U</text>
    </g>
    <!-- A&#45;&gt;U -->
    <g
       id="edge7"
       class="edge">
      <title
         id="title63">A-&gt;U</title>
      <path
         fill="none"
         stroke="#00cd00"
         d="m 154.3986,-57.8513 c 0,8.9771 0,21.6895 0,31.6077"
         id="path65" />
      <polygon
         fill="#00cd00"
         stroke="#00cd00"
         points="154.3986,-22.183 152.9987,-26.183 155.7987,-26.1829 "
         id="polygon67" />
      <text
         text-anchor="start"
         x="144.58971"
         y="-38.900002"
         font-family="Times, serif"
         font-style="italic"
         font-size="7px"
         fill="#000000"
         id="text69">r</text>
      <text
         text-anchor="start"
         x="146.92"
         y="-38.900002"
         font-family="Times, serif"
         font-style="italic"
         baseline-shift="sub"
         font-size="4px"
         fill="#000000"
         id="text71">A</text>
    </g>
    <!-- A&#45;&gt;i -->
    <g
       id="edge9"
       class="edge">
      <title
         id="title74">A:sw-&gt;i:se</title>
      <path
         fill="none"
         stroke="#ffa500"
         stroke-dasharray="5, 2"
         d="m 143.3986,-58 c -18.8519,18.8519 -40.9469,19.8829 -60.1535,3.0929"
         id="path76" />
      <polygon
         fill="#ffa500"
         stroke="#ffa500"
         points="79.9419,-58 83.8187,-56.288 81.9049,-54.2441 "
         id="polygon78" />
      <text
         text-anchor="start"
         x="111.6993"
         y="-49.099998"
         font-family="Times, serif"
         font-style="italic"
         font-size="7px"
         fill="#000000"
         id="text80">Λ</text>
      <text
         text-anchor="start"
         x="115.7796"
         y="-49.099998"
         font-family="Times, serif"
         font-size="7px"
         fill="#000000"
         id="text82" />
      <text
         text-anchor="start"
         x="117.5296"
         y="-49.099998"
         font-family="Times, serif"
         font-style="italic"
         baseline-shift="sub"
         font-size="4px"
         fill="#000000"
         id="text84">i</text>
    </g>
    <!-- U&#45;&gt;S -->
    <g
       id="edge8"
       class="edge">
      <title
         id="title87">U:w-&gt;S:s</title>
      <path
         fill="none"
         stroke="#00cd00"
         d="M 143.3986,-11 C 83.3686,-11 14.3196,9.476 11.1159,-46.8132"
         id="path89" />
      <polygon
         fill="#00cd00"
         stroke="#00cd00"
         points="11,-51 12.5102,-47.0403 9.7113,-46.9628 "
         id="polygon91" />
      <text
         text-anchor="start"
         x="73.332901"
         y="-11.1"
         font-family="Times, serif"
         font-style="italic"
         font-size="7px"
         fill="#000000"
         id="text93">r</text>
      <text
         text-anchor="start"
         x="75.6632"
         y="-11.1"
         font-family="Times, serif"
         font-style="italic"
         baseline-shift="sub"
         font-size="4px"
         fill="#000000"
         id="text95">U</text>
    </g>
    <!-- U&#45;&gt;i -->
    <g
       id="edge10"
       class="edge">
      <title
         id="title98">U-&gt;i:s</title>
      <path
         fill="none"
         stroke="#ffa500"
         stroke-dasharray="5, 2"
         d="M 143.1577,-12.2318 C 122.4806,-15.1544 80.1572,-24.4505 76.2348,-51.8281"
         id="path100" />
      <polygon
         fill="#ffa500"
         stroke="#ffa500"
         points="75.9419,-56 77.6187,-52.1079 74.8256,-51.9117 "
         id="polygon102" />
      <text
         text-anchor="start"
         x="111.6993"
         y="-25.1"
         font-family="Times, serif"
         font-style="italic"
         font-size="7px"
         fill="#000000"
         id="text104">Λ</text>
      <text
         text-anchor="start"
         x="115.7796"
         y="-25.1"
         font-family="Times, serif"
         font-size="7px"
         fill="#000000"
         id="text106" />
      <text
         text-anchor="start"
         x="117.5296"
         y="-25.1"
         font-family="Times, serif"
         font-style="italic"
         baseline-shift="sub"
         font-size="4px"
         fill="#000000"
         id="text108">i</text>
    </g>
    <!-- Tr -->
    <g
       id="node5"
       class="node">
      <title
         id="title111">Tr</title>
      <path
         fill="none"
         stroke="#000000"
         d="m 79.6086,-125 c 0,0 -7.3334,0 -7.3334,0 -3.6666,0 -7.3333,3.6667 -7.3333,7.3333 0,0 0,7.3334 0,7.3334 0,3.6666 3.6667,7.3333 7.3333,7.3333 0,0 7.3334,0 7.3334,0 3.6666,0 7.3333,-3.6667 7.3333,-7.3333 0,0 0,-7.3334 0,-7.3334 0,-3.6666 -3.6667,-7.3333 -7.3333,-7.3333"
         id="path113" />
      <text
         text-anchor="middle"
         x="75.941902"
         y="-109.8"
         font-family="Times, serif"
         font-size="14px"
         fill="#000000"
         id="text115">Tr</text>
    </g>
    <!-- Tr&#45;&gt;S -->
    <g
       id="edge2"
       class="edge">
      <title
         id="title118">Tr:w-&gt;S:n</title>
      <path
         fill="none"
         stroke="#00cd00"
         d="m 64.9419,-114 c -28.7017,0 -51.6942,9.89 -53.7866,36.8912"
         id="path120" />
      <polygon
         fill="#00cd00"
         stroke="#00cd00"
         points="11,-73 9.7521,-77.05 12.5501,-76.9442 "
         id="polygon122" />
      <text
         text-anchor="start"
         x="41.084"
         y="-116.1"
         font-family="Times, serif"
         font-style="italic"
         font-size="7px"
         fill="#000000"
         id="text124">r</text>
      <text
         text-anchor="start"
         x="43.414299"
         y="-116.1"
         font-family="Times, serif"
         font-style="italic"
         baseline-shift="sub"
         font-size="4px"
         fill="#000000"
         id="text126">T</text>
    </g>
    <!-- i&#45;&gt;D -->
    <g
       id="edge3"
       class="edge">
      <title
         id="title129">i-&gt;D</title>
      <path
         fill="none"
         stroke="#ffa500"
         d="m 80.6148,-65.8714 c 11.443,-9.4803 41.2472,-34.1726 59.2813,-49.1135"
         id="path131" />
      <polygon
         fill="#ffa500"
         stroke="#ffa500"
         points="143.337,-117.8357 141.15,-114.2057 139.3636,-116.3618 "
         id="polygon133" />
      <text
         text-anchor="start"
         x="104.9419"
         y="-106.1"
         font-family="Times, serif"
         font-style="italic"
         font-size="7px"
         fill="#000000"
         id="text135">ϕ</text>
      <text
         text-anchor="start"
         x="109.0222"
         y="-106.1"
         font-family="Times, serif"
         font-style="italic"
         baseline-shift="sub"
         font-size="4px"
         fill="#000000"
         id="text137">i</text>
      <text
         text-anchor="start"
         x="110.1338"
         y="-106.1"
         font-family="Times, serif"
         font-style="italic"
         font-size="7px"
         fill="#000000"
         id="text139">(1-f</text>
      <text
         text-anchor="start"
         x="120.6247"
         y="-106.1"
         font-family="Times, serif"
         font-style="italic"
         baseline-shift="sub"
         font-size="4px"
         fill="#000000"
         id="text141">T</text>
      <text
         text-anchor="start"
         x="123.0683"
         y="-106.1"
         font-family="Times, serif"
         font-size="7px"
         fill="#000000"
         id="text143">)</text>
    </g>
    <!-- i&#45;&gt;A -->
    <g
       id="edge4"
       class="edge">
      <title
         id="title146">i-&gt;A</title>
      <path
         fill="none"
         stroke="#ffa500"
         d="m 81.6883,-63.2186 c 5.8288,-1.1822 15.1247,-2.92 23.2536,-3.7814 11.4121,-1.2093 24.3766,-1.7012 34.1681,-1.8951"
         id="path148" />
      <polygon
         fill="#ffa500"
         stroke="#ffa500"
         points="143.3686,-68.9647 139.392,-67.4994 139.3462,-70.299 "
         id="polygon150" />
      <text
         text-anchor="start"
         x="109.6591"
         y="-72.099998"
         font-family="Times, serif"
         font-style="italic"
         font-size="7px"
         fill="#000000"
         id="text152">1-ϕ</text>
      <text
         text-anchor="start"
         x="119.5697"
         y="-72.099998"
         font-family="Times, serif"
         font-style="italic"
         baseline-shift="sub"
         font-size="4px"
         fill="#000000"
         id="text154">i</text>
    </g>
    <!-- i&#45;&gt;Tr -->
    <g
       id="edge5"
       class="edge">
      <title
         id="title157">i-&gt;Tr</title>
      <path
         fill="none"
         stroke="#ffa500"
         d="m 75.9419,-67.5649 c 0,-7.4016 0,-20.772 0,-31.2712"
         id="path159" />
      <polygon
         fill="#ffa500"
         stroke="#ffa500"
         points="75.9419,-102.8447 77.342,-98.8447 74.542,-98.8447 "
         id="polygon161" />
      <text
         text-anchor="start"
         x="63.758999"
         y="-84.150002"
         font-family="Times, serif"
         font-style="italic"
         font-size="7px"
         fill="#000000"
         id="text163">ϕ</text>
      <text
         text-anchor="start"
         x="67.839302"
         y="-84.150002"
         font-family="Times, serif"
         font-style="italic"
         baseline-shift="sub"
         font-size="4px"
         fill="#000000"
         id="text165">i</text>
      <text
         text-anchor="start"
         x="68.950897"
         y="-84.150002"
         font-family="Times, serif"
         font-style="italic"
         font-size="7px"
         fill="#000000"
         id="text167">f</text>
      <text
         text-anchor="start"
         x="71.281197"
         y="-84.150002"
         font-family="Times, serif"
         font-style="italic"
         baseline-shift="sub"
         font-size="4px"
         fill="#000000"
         id="text169">T</text>
    </g>
  </g>
  <g
     id="graph0-3"
     class="graph"
     transform="matrix(0.59069377,0,0,0.59069377,74.586238,123.20107)">
    <title
       id="title179">%0</title>
    <polygon
       fill="#ffffff"
       stroke="transparent"
       points="-4,-61 135,-61 135,4 -4,4 "
       id="polygon181"
       transform="matrix(0.72478105,0,0,0.72478105,62.391688,-114.5913)" />
    <!-- y2 -->
    <g
       id="node1-6"
       class="node"
       transform="matrix(0.72478105,0,0,0.72478105,62.391688,-114.5913)">
      <title
         id="title183">y2</title>
      <text
         text-anchor="start"
         x="65.953003"
         y="-53.5"
         font-family="Times, serif"
         font-size="10px"
         fill="#000000"
         id="text185">Infection</text>
      <text
         text-anchor="start"
         x="58.473301"
         y="-47.099998"
         font-family="Times, serif"
         font-size="6px"
         fill="#000000"
         id="text187">&quot;human_infection.R&quot;</text>
    </g>
    <!-- y4 -->
    <g
       id="node2-7"
       class="node"
       transform="matrix(0.72478105,0,0,0.72478105,62.391688,-114.5913)">
      <title
         id="title190">y4</title>
      <text
         text-anchor="start"
         x="54.564499"
         y="-28.5"
         font-family="Times, serif"
         font-size="10px"
         fill="#000000"
         id="text192">Superinfection</text>
      <text
         text-anchor="start"
         x="58.473301"
         y="-22.1"
         font-family="Times, serif"
         font-size="6px"
         fill="#000000"
         id="text194">&quot;human_infection.R&quot;</text>
    </g>
    <!-- g2 -->
    <g
       id="node3-5"
       class="node"
       transform="matrix(0.72478105,0,0,0.72478105,62.391688,-114.5913)">
      <title
         id="title197">g2</title>
      <text
         text-anchor="start"
         x="43.876499"
         y="-3.5"
         font-family="Times, serif"
         font-size="10px"
         fill="#000000"
         id="text199">Disease progression</text>
      <text
         text-anchor="start"
         x="54.643501"
         y="2.9000001"
         font-family="Times, serif"
         font-size="6px"
         fill="#000000"
         id="text201">&quot;disease_progression.R&quot;</text>
    </g>
    <!-- y1 -->
    <g
       id="node4-3"
       class="node">
      <title
         id="title204">y1</title>
    </g>
    <!-- y1&#45;&gt;y2 -->
    <g
       id="edge1-5"
       class="edge"
       transform="matrix(0.72478105,0,0,0.72478105,62.391688,-114.5913)">
      <title
         id="title207">y1-&gt;y2</title>
      <path
         fill="none"
         stroke="#ffa500"
         d="m 1.0332,-53.5 c 3.6721,0 25.6729,0 46.0952,0"
         id="path209" />
      <polygon
         fill="#ffa500"
         stroke="#ffa500"
         points="47.1858,-52.1001 47.1859,-54.9001 51.1858,-53.5 "
         id="polygon211" />
    </g>
    <!-- y3 -->
    <g
       id="node5-6"
       class="node">
      <title
         id="title214">y3</title>
    </g>
    <!-- y1&#45;&gt;y3 -->
    <g
       id="edge4-2"
       class="edge">
      <title
         id="title217">y1-&gt;y3</title>
    </g>
    <!-- y3&#45;&gt;y4 -->
    <g
       id="edge2-9"
       class="edge"
       transform="matrix(0.72478105,0,0,0.72478105,62.391688,-114.5913)">
      <title
         id="title220">y3-&gt;y4</title>
      <path
         fill="none"
         stroke="#ffa500"
         stroke-dasharray="5, 2"
         d="m 1.0332,-28.5 c 3.4607,0 23.2007,0 42.5564,0"
         id="path222" />
      <polygon
         fill="#ffa500"
         stroke="#ffa500"
         points="43.9674,-27.1001 43.9675,-29.9001 47.9675,-28.5 "
         id="polygon224" />
    </g>
    <!-- g1 -->
    <g
       id="node6-1"
       class="node">
      <title
         id="title227">g1</title>
    </g>
    <!-- y3&#45;&gt;g1 -->
    <g
       id="edge5-2"
       class="edge">
      <title
         id="title230">y3-&gt;g1</title>
    </g>
    <!-- g1&#45;&gt;g2 -->
    <g
       id="edge3-7"
       class="edge"
       transform="matrix(0.72478105,0,0,0.72478105,62.391688,-114.5913)">
      <title
         id="title233">g1-&gt;g2</title>
      <path
         fill="none"
         stroke="#00cd00"
         d="m 1.0332,-3.5 c 2.7931,0 16.1907,0 31.4319,0"
         id="path235" />
      <polygon
         fill="#00cd00"
         stroke="#00cd00"
         points="32.8055,-2.1001 32.8056,-4.9001 36.8055,-3.5 "
         id="polygon237" />
    </g>
  </g>
</svg>
