<?xml version="1.0" encoding="UTF-8" standalone="no"?>
<!-- Generated by graphviz version 2.40.1 (20161225.0304)
 -->

<!-- Title: %0 Pages: 1 -->

<svg
   width="480pt"
   height="80pt"
   viewBox="0 0 480 80.421053"
   version="1.1"
   id="svg232"
   sodipodi:docname="Model_mos_figure_complete_2.svg"
   inkscape:version="1.1.2 (0a00cf5339, 2022-02-04)"
   xmlns:inkscape="http://www.inkscape.org/namespaces/inkscape"
   xmlns:sodipodi="http://sodipodi.sourceforge.net/DTD/sodipodi-0.dtd"
   xmlns="http://www.w3.org/2000/svg"
   xmlns:svg="http://www.w3.org/2000/svg">
  <defs
     id="defs236">
    <inkscape:path-effect
       effect="fillet_chamfer"
       id="path-effect1388"
       is_visible="true"
       lpeversion="1"
       satellites_param="F,0,0,1,0,11.25,0,1 @ F,0,0,1,0,11.25,0,1 @ F,0,0,1,0,11.25,0,1 @ F,0,0,1,0,11.25,0,1"
       unit="px"
       method="auto"
       mode="F"
       radius="15"
       chamfer_steps="1"
       flexible="false"
       use_knot_distance="true"
       apply_no_radius="true"
       apply_with_radius="true"
       only_selected="false"
       hide_knots="false" />
    <inkscape:path-effect
       effect="fillet_chamfer"
       id="path-effect1388-2"
       is_visible="true"
       lpeversion="1"
       satellites_param="F,0,0,1,0,11.25,0,1 @ F,0,0,1,0,11.25,0,1 @ F,0,0,1,0,11.25,0,1 @ F,0,0,1,0,11.25,0,1"
       unit="px"
       method="auto"
       mode="F"
       radius="15"
       chamfer_steps="1"
       flexible="false"
       use_knot_distance="true"
       apply_no_radius="true"
       apply_with_radius="true"
       only_selected="false"
       hide_knots="false" />
  </defs>
  <sodipodi:namedview
     id="namedview234"
     pagecolor="#ffffff"
     bordercolor="#666666"
     borderopacity="1.0"
     inkscape:pageshadow="2"
     inkscape:pageopacity="0.0"
     inkscape:pagecheckerboard="0"
     inkscape:document-units="pt"
     showgrid="false"
     inkscape:zoom="1.4042128"
     inkscape:cx="278.44783"
     inkscape:cy="11.750356"
     inkscape:window-width="1846"
     inkscape:window-height="1016"
     inkscape:window-x="74"
     inkscape:window-y="27"
     inkscape:window-maximized="1"
     inkscape:current-layer="svg232" />
  <path
     style="opacity:0.47;fill:#ffeeaa;fill-opacity:1;stroke-width:0.75"
     id="rect1306-8"
     width="152.97382"
     height="42.221054"
     x="185.2153"
     y="7.2378955"
     inkscape:path-effect="#path-effect1388-2"
     sodipodi:type="rect"
     d="m 196.4653,7.2378955 h 130.47382 a 11.25,11.25 45 0 1 11.25,11.2499995 V 38.20895 a 11.25,11.25 135 0 1 -11.25,11.25 H 196.4653 a 11.25,11.25 45 0 1 -11.25,-11.25 V 18.487895 a 11.25,11.25 135 0 1 11.25,-11.2499995 z" />
  <path
     style="opacity:0.47;fill:#aaeeff;fill-opacity:1;stroke-width:0.75"
     id="rect1306"
     width="156.58282"
     height="42.221054"
     x="4.306859"
     y="7.2378955"
     inkscape:path-effect="#path-effect1388"
     sodipodi:type="rect"
     d="M 15.556859,7.2378955 H 149.63968 a 11.25,11.25 45 0 1 11.25,11.2499995 V 38.20895 a 11.25,11.25 135 0 1 -11.25,11.25 H 15.556859 a 11.25,11.25 45 0 1 -11.25,-11.25 V 18.487895 a 11.25,11.25 135 0 1 11.25,-11.2499995 z" />
  <g
     id="graph0"
     class="graph"
     transform="translate(10.031579,90.49474)">
    <title
       id="title2">%0</title>
    <!-- E -->
    <g
       id="node1"
       class="node">
      <title
         id="title4">E</title>
      <path
         fill="none"
         stroke="#000000"
         d="m 16.6667,-68.4 c 0,0 -7.3334,0 -7.3334,0 C 5.6667,-68.4 2,-64.7333 2,-61.0667 c 0,0 0,7.3334 0,7.3334 0,3.6666 3.6667,7.3333 7.3333,7.3333 0,0 7.3334,0 7.3334,0 3.6666,0 7.3333,-3.6667 7.3333,-7.3333 0,0 0,-7.3334 0,-7.3334 0,-3.6666 -3.6667,-7.3333 -7.3333,-7.3333"
         id="path6" />
      <text
         text-anchor="middle"
         x="13"
         y="-53.200001"
         font-family="Times, serif"
         font-size="14px"
         fill="#000000"
         id="text8">E</text>
    </g>
    <!-- L -->
    <g
       id="node2"
       class="node">
      <title
         id="title11">L</title>
      <path
         fill="none"
         stroke="#000000"
         d="m 75.6667,-68.4 c 0,0 -7.3334,0 -7.3334,0 -3.6666,0 -7.3333,3.6667 -7.3333,7.3333 0,0 0,7.3334 0,7.3334 0,3.6666 3.6667,7.3333 7.3333,7.3333 0,0 7.3334,0 7.3334,0 3.6666,0 7.3333,-3.6667 7.3333,-7.3333 0,0 0,-7.3334 0,-7.3334 0,-3.6666 -3.6667,-7.3333 -7.3333,-7.3333"
         id="path13" />
      <text
         text-anchor="middle"
         x="72"
         y="-53.200001"
         font-family="Times, serif"
         font-size="14px"
         fill="#000000"
         id="text15">L</text>
    </g>
    <!-- E&#45;&gt;L -->
    <g
       id="edge1"
       class="edge">
      <title
         id="title18">E-&gt;L</title>
      <path
         fill="none"
         stroke="#00cd00"
         d="m 24.0974,-57.4 c 9.889,0 24.3717,0 34.8213,0"
         id="path20" />
      <polygon
         fill="#00cd00"
         stroke="#00cd00"
         points="58.9523,-56.7001 58.9523,-58.1001 60.9523,-57.4 "
         id="polygon22" />
      <text
         text-anchor="start"
         x="38.8913"
         y="-63.5"
         font-family="Times, serif"
         font-style="italic"
         font-size="7px"
         fill="#000000"
         id="text24">r</text>
      <text
         text-anchor="start"
         x="41.2216"
         y="-63.5"
         font-family="Times, serif"
         font-style="italic"
         baseline-shift="sub"
         font-size="4px"
         fill="#000000"
         id="text26">EL</text>
    </g>
    <!-- I1 -->
    <g
       id="node7"
       class="node">
      <title
         id="title29">I1</title>
    </g>
    <!-- E&#45;&gt;I1 -->
    <g
       id="edge7"
       class="edge">
      <title
         id="title32">E-&gt;I1</title>
    </g>
    <!-- I2 -->
    <g
       id="node8"
       class="node">
      <title
         id="title35">I2</title>
    </g>
    <!-- E&#45;&gt;I2 -->
    <g
       id="edge14"
       class="edge">
      <title
         id="title38">E-&gt;I2</title>
      <path
         fill="none"
         stroke="#ff0000"
         d="m 24.0974,-48.6725 c 9.9715,7.8419 24.6134,19.3569 35.0817,27.5896"
         id="path40" />
      <polygon
         fill="#ff0000"
         stroke="#ff0000"
         points="58.9475,-20.3745 59.8129,-21.475 60.9523,-19.6884 "
         id="polygon42" />
      <text
         text-anchor="start"
         x="48"
         y="-33.099998"
         font-family="Times, serif"
         font-style="italic"
         font-size="7px"
         fill="#000000"
         id="text44">µ</text>
      <text
         text-anchor="start"
         x="52.080299"
         y="-33.099998"
         font-family="Times, serif"
         font-style="italic"
         baseline-shift="sub"
         font-size="4px"
         fill="#000000"
         id="text46">E</text>
      <text
         text-anchor="start"
         x="54.523899"
         y="-33.099998"
         font-family="Times, serif"
         font-style="italic"
         font-size="7px"
         fill="#000000"
         id="text48">(t)</text>
    </g>
    <!-- P -->
    <g
       id="node3"
       class="node">
      <title
         id="title51">P</title>
      <path
         fill="none"
         stroke="#000000"
         d="m 137.6667,-68.4 c 0,0 -7.3334,0 -7.3334,0 -3.6666,0 -7.3333,3.6667 -7.3333,7.3333 0,0 0,7.3334 0,7.3334 0,3.6666 3.6667,7.3333 7.3333,7.3333 0,0 7.3334,0 7.3334,0 3.6666,0 7.3333,-3.6667 7.3333,-7.3333 0,0 0,-7.3334 0,-7.3334 0,-3.6666 -3.6667,-7.3333 -7.3333,-7.3333"
         id="path53" />
      <text
         text-anchor="middle"
         x="134"
         y="-53.200001"
         font-family="Times, serif"
         font-size="14px"
         fill="#000000"
         id="text55">P</text>
    </g>
    <!-- L&#45;&gt;P -->
    <g
       id="edge2"
       class="edge">
      <title
         id="title58">L-&gt;P</title>
      <path
         fill="none"
         stroke="#00cd00"
         d="m 83.0844,-57.4 c 10.4492,0 26.1337,0 37.331,0"
         id="path60" />
      <polygon
         fill="#00cd00"
         stroke="#00cd00"
         points="120.5921,-56.7001 120.5922,-58.1001 122.5921,-57.4 "
         id="polygon62" />
      <text
         text-anchor="start"
         x="100.6131"
         y="-63.5"
         font-family="Times, serif"
         font-style="italic"
         font-size="7px"
         fill="#000000"
         id="text64">r</text>
      <text
         text-anchor="start"
         x="102.9434"
         y="-63.5"
         font-family="Times, serif"
         font-style="italic"
         baseline-shift="sub"
         font-size="4px"
         fill="#000000"
         id="text66">L</text>
    </g>
    <!-- L&#45;&gt;I2 -->
    <g
       id="edge8"
       class="edge">
      <title
         id="title69">L-&gt;I2</title>
    </g>
    <!-- I3 -->
    <g
       id="node9"
       class="node">
      <title
         id="title72">I3</title>
    </g>
    <!-- L&#45;&gt;I3 -->
    <g
       id="edge15"
       class="edge">
      <title
         id="title75">L-&gt;I3</title>
      <path
         fill="none"
         stroke="#ff0000"
         d="m 83.2631,-49.1046 c 10.9297,8.0498 27.4963,20.2512 38.9238,28.6677"
         id="path77" />
      <polygon
         fill="#ff0000"
         stroke="#ff0000"
         points="121.8089,-19.846 122.6391,-20.9733 123.8344,-19.2236 "
         id="polygon79" />
      <text
         text-anchor="start"
         x="110"
         y="-33.099998"
         font-family="Times, serif"
         font-style="italic"
         font-size="7px"
         fill="#000000"
         id="text81">µ</text>
      <text
         text-anchor="start"
         x="114.0803"
         y="-33.099998"
         font-family="Times, serif"
         font-style="italic"
         baseline-shift="sub"
         font-size="4px"
         fill="#000000"
         id="text83">L</text>
      <text
         text-anchor="start"
         x="116.5239"
         y="-33.099998"
         font-family="Times, serif"
         font-style="italic"
         font-size="7px"
         fill="#000000"
         id="text85">(t)</text>
      <text
         text-anchor="start"
         x="123.1298"
         y="-33.099998"
         font-family="Times, serif"
         font-size="7px"
         fill="#000000"
         id="text87" />
    </g>
    <!-- Sm -->
    <g
       id="node4"
       class="node">
      <title
         id="title90">Sm</title>
      <path
         fill="none"
         stroke="#000000"
         d="m 195.6667,-68.4 c 0,0 -7.3334,0 -7.3334,0 -3.6666,0 -7.3333,3.6667 -7.3333,7.3333 0,0 0,7.3334 0,7.3334 0,3.6666 3.6667,7.3333 7.3333,7.3333 0,0 7.3334,0 7.3334,0 3.6666,0 7.3333,-3.6667 7.3333,-7.3333 0,0 0,-7.3334 0,-7.3334 0,-3.6666 -3.6667,-7.3333 -7.3333,-7.3333"
         id="path92" />
      <text
         text-anchor="start"
         x="185.442"
         y="-54.200001"
         font-family="Times, serif"
         font-size="14px"
         fill="#000000"
         id="text94">S</text>
      <text
         text-anchor="start"
         x="193.22459"
         y="-54.200001"
         font-family="Times, serif"
         baseline-shift="sub"
         font-size="6px"
         fill="#000000"
         id="text96">M</text>
    </g>
    <!-- P&#45;&gt;Sm -->
    <g
       id="edge3"
       class="edge">
      <title
         id="title99">P-&gt;Sm</title>
      <path
         fill="none"
         stroke="#00cd00"
         d="m 145.183,-57.4 c 9.5483,0 23.304,0 33.4352,0"
         id="path101" />
      <polygon
         fill="#00cd00"
         stroke="#00cd00"
         points="178.8513,-56.7001 178.8514,-58.1001 180.8513,-57.4 "
         id="polygon103" />
      <text
         text-anchor="start"
         x="160.7231"
         y="-63.5"
         font-family="Times, serif"
         font-style="italic"
         font-size="7px"
         fill="#000000"
         id="text105">r</text>
      <text
         text-anchor="start"
         x="163.05341"
         y="-63.5"
         font-family="Times, serif"
         font-style="italic"
         baseline-shift="sub"
         font-size="4px"
         fill="#000000"
         id="text107">P</text>
    </g>
    <!-- P&#45;&gt;I3 -->
    <g
       id="edge9"
       class="edge">
      <title
         id="title110">P-&gt;I3</title>
    </g>
    <!-- I4 -->
    <g
       id="node10"
       class="node">
      <title
         id="title113">I4</title>
    </g>
    <!-- P&#45;&gt;I4 -->
    <g
       id="edge16"
       class="edge">
      <title
         id="title116">P-&gt;I4</title>
      <path
         fill="none"
         stroke="#ff0000"
         d="m 145.183,-48.4536 c 9.6286,7.7028 23.5355,18.8284 33.6899,26.9519"
         id="path118" />
      <polygon
         fill="#ff0000"
         stroke="#ff0000"
         points="178.8523,-20.6217 179.7269,-21.715 180.8513,-19.9189 "
         id="polygon120" />
      <text
         text-anchor="start"
         x="169"
         y="-33.099998"
         font-family="Times, serif"
         font-style="italic"
         font-size="7px"
         fill="#000000"
         id="text122">µ</text>
      <text
         text-anchor="start"
         x="173.08031"
         y="-33.099998"
         font-family="Times, serif"
         font-style="italic"
         baseline-shift="sub"
         font-size="4px"
         fill="#000000"
         id="text124">P</text>
    </g>
    <!-- Pm -->
    <g
       id="node5"
       class="node">
      <title
         id="title127">Pm</title>
      <path
         fill="none"
         stroke="#000000"
         d="m 253.6667,-68.4 c 0,0 -7.3334,0 -7.3334,0 -3.6666,0 -7.3333,3.6667 -7.3333,7.3333 0,0 0,7.3334 0,7.3334 0,3.6666 3.6667,7.3333 7.3333,7.3333 0,0 7.3334,0 7.3334,0 3.6666,0 7.3333,-3.6667 7.3333,-7.3333 0,0 0,-7.3334 0,-7.3334 0,-3.6666 -3.6667,-7.3333 -7.3333,-7.3333"
         id="path129" />
      <text
         text-anchor="start"
         x="243.442"
         y="-54.200001"
         font-family="Times, serif"
         font-size="14px"
         fill="#000000"
         id="text131">P</text>
      <text
         text-anchor="start"
         x="251.22459"
         y="-54.200001"
         font-family="Times, serif"
         baseline-shift="sub"
         font-size="6px"
         fill="#000000"
         id="text133">M</text>
    </g>
    <!-- Sm&#45;&gt;Pm -->
    <g
       id="edge4"
       class="edge">
      <title
         id="title136">Sm-&gt;Pm</title>
      <path
         fill="none"
         stroke="#ffa500"
         d="m 203.183,-57.4 c 9.5483,0 23.304,0 33.4352,0"
         id="path138" />
      <polygon
         fill="#ffa500"
         stroke="#ffa500"
         points="236.8513,-56.7001 236.8514,-58.1001 238.8513,-57.4 "
         id="polygon140" />
      <text
         text-anchor="start"
         x="217.1821"
         y="-63.5"
         font-family="Times, serif"
         font-size="7px"
         fill="#000000"
         id="text142">Λ</text>
      <text
         text-anchor="start"
         x="221.26241"
         y="-63.5"
         font-family="Times, serif"
         font-style="italic"
         baseline-shift="sub"
         font-size="4px"
         fill="#000000"
         id="text144">M</text>
    </g>
    <!-- Sm&#45;&gt;I4 -->
    <g
       id="edge10"
       class="edge">
      <title
         id="title147">Sm-&gt;I4</title>
    </g>
    <!-- I5 -->
    <g
       id="node11"
       class="node">
      <title
         id="title150">I5</title>
    </g>
    <!-- Sm&#45;&gt;I5 -->
    <g
       id="edge17"
       class="edge">
      <title
         id="title153">Sm-&gt;I5</title>
      <path
         fill="none"
         stroke="#ff0000"
         d="m 203.183,-48.4536 c 9.6286,7.7028 23.5355,18.8284 33.6899,26.9519"
         id="path155" />
      <polygon
         fill="#ff0000"
         stroke="#ff0000"
         points="236.8523,-20.6217 237.7269,-21.715 238.8513,-19.9189 "
         id="polygon157" />
      <text
         text-anchor="start"
         x="227"
         y="-33.099998"
         font-family="Times, serif"
         font-style="italic"
         font-size="7px"
         fill="#000000"
         id="text159">µ</text>
      <text
         text-anchor="start"
         x="231.08031"
         y="-33.099998"
         font-family="Times, serif"
         font-style="italic"
         baseline-shift="sub"
         font-size="4px"
         fill="#000000"
         id="text161">M</text>
    </g>
    <!-- Im -->
    <g
       id="node6"
       class="node">
      <title
         id="title164">Im</title>
      <path
         fill="none"
         stroke="#000000"
         d="m 311.6667,-68.4 c 0,0 -7.3334,0 -7.3334,0 -3.6666,0 -7.3333,3.6667 -7.3333,7.3333 0,0 0,7.3334 0,7.3334 0,3.6666 3.6667,7.3333 7.3333,7.3333 0,0 7.3334,0 7.3334,0 3.6666,0 7.3333,-3.6667 7.3333,-7.3333 0,0 0,-7.3334 0,-7.3334 0,-3.6666 -3.6667,-7.3333 -7.3333,-7.3333"
         id="path166" />
      <text
         text-anchor="start"
         x="303.00299"
         y="-54.200001"
         font-family="Times, serif"
         font-size="14px"
         fill="#000000"
         id="text168">I</text>
      <text
         text-anchor="start"
         x="307.6636"
         y="-54.200001"
         font-family="Times, serif"
         baseline-shift="sub"
         font-size="6px"
         fill="#000000"
         id="text170">M</text>
    </g>
    <!-- Pm&#45;&gt;Im -->
    <g
       id="edge5"
       class="edge">
      <title
         id="title173">Pm-&gt;Im</title>
      <path
         fill="none"
         stroke="#ffa500"
         d="m 261.183,-57.4 c 9.5483,0 23.304,0 33.4352,0"
         id="path175" />
      <polygon
         fill="#ffa500"
         stroke="#ffa500"
         points="294.8513,-56.7001 294.8514,-58.1001 296.8513,-57.4 "
         id="polygon177" />
      <text
         text-anchor="start"
         x="274.83521"
         y="-63.5"
         font-family="Times, serif"
         font-style="italic"
         font-size="7px"
         fill="#000000"
         id="text179">r</text>
      <text
         text-anchor="start"
         x="277.16559"
         y="-63.5"
         font-family="Times, serif"
         font-style="italic"
         baseline-shift="sub"
         font-size="4px"
         fill="#000000"
         id="text181">EM</text>
    </g>
    <!-- Pm&#45;&gt;I5 -->
    <g
       id="edge11"
       class="edge">
      <title
         id="title184">Pm-&gt;I5</title>
    </g>
    <!-- I6 -->
    <g
       id="node12"
       class="node">
      <title
         id="title187">I6</title>
    </g>
    <!-- Pm&#45;&gt;I6 -->
    <g
       id="edge18"
       class="edge">
      <title
         id="title190">Pm-&gt;I6</title>
      <path
         fill="none"
         stroke="#ff0000"
         d="m 261.183,-48.4536 c 9.6286,7.7028 23.5355,18.8284 33.6899,26.9519"
         id="path192" />
      <polygon
         fill="#ff0000"
         stroke="#ff0000"
         points="294.8523,-20.6217 295.7269,-21.715 296.8513,-19.9189 "
         id="polygon194" />
      <text
         text-anchor="start"
         x="284"
         y="-33.099998"
         font-family="Times, serif"
         font-style="italic"
         font-size="7px"
         fill="#000000"
         id="text196">µ</text>
      <text
         text-anchor="start"
         x="288.08029"
         y="-33.099998"
         font-family="Times, serif"
         font-style="italic"
         baseline-shift="sub"
         font-size="4px"
         fill="#000000"
         id="text198">M</text>
      <text
         text-anchor="start"
         x="291.63589"
         y="-33.099998"
         font-family="Times, serif"
         font-size="7px"
         fill="#000000"
         id="text200" />
    </g>
    <!-- Im&#45;&gt;I6 -->
    <g
       id="edge12"
       class="edge">
      <title
         id="title203">Im-&gt;I6</title>
    </g>
    <!-- I7 -->
    <g
       id="node13"
       class="node">
      <title
         id="title206">I7</title>
    </g>
    <!-- Im&#45;&gt;I7 -->
    <g
       id="edge19"
       class="edge">
      <title
         id="title209">Im-&gt;I7</title>
      <path
         fill="none"
         stroke="#ff0000"
         d="m 319.183,-48.4536 c 9.6286,7.7028 23.5355,18.8284 33.6899,26.9519"
         id="path211" />
      <polygon
         fill="#ff0000"
         stroke="#ff0000"
         points="352.8523,-20.6217 353.7269,-21.715 354.8513,-19.9189 "
         id="polygon213" />
      <text
         text-anchor="start"
         x="342"
         y="-33.099998"
         font-family="Times, serif"
         font-style="italic"
         font-size="7px"
         fill="#000000"
         id="text215">µ</text>
      <text
         text-anchor="start"
         x="346.08029"
         y="-33.099998"
         font-family="Times, serif"
         font-style="italic"
         baseline-shift="sub"
         font-size="4px"
         fill="#000000"
         id="text217">M</text>
      <text
         text-anchor="start"
         x="349.63589"
         y="-33.099998"
         font-family="Times, serif"
         font-size="7px"
         fill="#000000"
         id="text219" />
    </g>
    <!-- I8 -->
    <g
       id="node14"
       class="node">
      <title
         id="title222">I8</title>
    </g>
    <!-- Im&#45;&gt;I8 -->
    <g
       id="edge6"
       class="edge">
      <title
         id="title225">Im-&gt;I8</title>
    </g>
    <!-- I8&#45;&gt;I7 -->
    <g
       id="edge13"
       class="edge">
      <title
         id="title228">I8-&gt;I7</title>
    </g>
  </g>
  <g
     id="graph0-3"
     class="graph"
     transform="matrix(0.79701191,0,0,0.79701191,384.60817,54.892214)">
    <title
       id="title1053">%0</title>
    <polygon
       fill="#ffffff"
       stroke="transparent"
       points="-4,4 -4,-61 113,-61 113,4 "
       id="polygon1055" />
    <!-- g2 -->
    <g
       id="node1-6"
       class="node">
      <title
         id="title1057">g2</title>
      <text
         text-anchor="start"
         x="46.063499"
         y="-50.5"
         font-family="Times, serif"
         font-size="10px"
         fill="#000000"
         id="text1059">Development</text>
    </g>
    <!-- y2 -->
    <g
       id="node2-7"
       class="node">
      <title
         id="title1062">y2</title>
      <text
         text-anchor="start"
         x="54.952999"
         y="-25.5"
         font-family="Times, serif"
         font-size="10px"
         fill="#000000"
         id="text1064">Infection</text>
    </g>
    <!-- r2 -->
    <g
       id="node3-5"
       class="node">
      <title
         id="title1067">r2</title>
      <text
         text-anchor="start"
         x="54.113499"
         y="-0.5"
         font-family="Times, serif"
         font-size="10px"
         fill="#000000"
         id="text1069">Mortality</text>
    </g>
    <!-- y1 -->
    <g
       id="node4-3"
       class="node">
      <title
         id="title1072">y1</title>
    </g>
    <!-- y1&#45;&gt;y2 -->
    <g
       id="edge1-5"
       class="edge">
      <title
         id="title1075">y1-&gt;y2</title>
      <path
         fill="none"
         stroke="#ffa500"
         d="m 1.3142,-28.5 c 4.281,0 24.6688,0 42.6126,0"
         id="path1077" />
      <polygon
         fill="#ffa500"
         stroke="#ffa500"
         points="43.9481,-27.1001 43.9481,-29.9001 47.9481,-28.5 "
         id="polygon1079" />
    </g>
    <!-- r1 -->
    <g
       id="node5-6"
       class="node">
      <title
         id="title1082">r1</title>
    </g>
    <!-- y1&#45;&gt;r1 -->
    <g
       id="edge5-2"
       class="edge">
      <title
         id="title1085">y1-&gt;r1</title>
    </g>
    <!-- r1&#45;&gt;r2 -->
    <g
       id="edge2-9"
       class="edge">
      <title
         id="title1088">r1-&gt;r2</title>
      <path
         fill="none"
         stroke="#ff0000"
         d="m 1.3142,-3.5 c 4.281,0 24.6688,0 42.6126,0"
         id="path1090" />
      <polygon
         fill="#ff0000"
         stroke="#ff0000"
         points="43.9481,-2.1001 43.9481,-4.9001 47.9481,-3.5 "
         id="polygon1092" />
    </g>
    <!-- g1 -->
    <g
       id="node6-1"
       class="node">
      <title
         id="title1095">g1</title>
    </g>
    <!-- g1&#45;&gt;g2 -->
    <g
       id="edge3-2"
       class="edge">
      <title
         id="title1098">g1-&gt;g2</title>
      <path
         fill="none"
         stroke="#00cd00"
         d="m 1.3142,-53.5 c 3.4128,0 17.0614,0 31.5479,0"
         id="path1100" />
      <polygon
         fill="#00cd00"
         stroke="#00cd00"
         points="32.9624,-52.1001 32.9624,-54.9001 36.9624,-53.5 "
         id="polygon1102" />
    </g>
    <!-- g1&#45;&gt;y1 -->
    <g
       id="edge4-7"
       class="edge">
      <title
         id="title1105">g1-&gt;y1</title>
    </g>
  </g>
  <text
     xml:space="preserve"
     style="font-style:normal;font-weight:normal;font-size:6.63123px;line-height:1.25;font-family:sans-serif;letter-spacing:0px;word-spacing:0px;fill:#000000;fill-opacity:1;stroke:none;stroke-width:0.165781"
     x="45.657978"
     y="16.598707"
     id="text4749"><tspan
       sodipodi:role="line"
       style="text-align:center;text-anchor:middle;stroke-width:0.165781"
       x="45.657978"
       y="16.598707"
       id="tspan5685">Juvenile mosquitoes</tspan></text>
  <text
     xml:space="preserve"
     style="font-style:normal;font-weight:normal;font-size:6.63123px;line-height:1.25;font-family:sans-serif;letter-spacing:0px;word-spacing:0px;fill:#000000;fill-opacity:1;stroke:none;stroke-width:0.165781"
     x="220.77356"
     y="16.598707"
     id="text4749-2"><tspan
       sodipodi:role="line"
       style="text-align:center;text-anchor:middle;stroke-width:0.165781"
       x="220.77356"
       y="16.598707"
       id="tspan5685-4">Adult mosquitoes</tspan></text>
</svg>
